<svg width="512" height="512" viewBox="0 0 512 512" fill="none" xmlns="http://www.w3.org/2000/svg">
<g clip-path="url(#clip0)">
<path d="M268.441 355.178L156.821 243.558C149.13 235.867 149.13 223.4 156.821 215.709C164.512 208.018 176.979 208.018 184.67 215.709L296.29 327.329C303.98 335.019 303.98 347.487 296.29 355.178C288.599 362.868 276.13 362.868 268.441 355.178Z" fill="#FFDB77"/>
<path d="M296.29 327.328L240.481 271.519L212.632 299.368L268.441 355.177C276.132 362.867 288.599 362.867 296.29 355.177C303.98 347.487 303.98 335.018 296.29 327.328Z" fill="#FF905E"/>
<path d="M441.297 182.321L329.677 70.701C321.987 63.01 321.987 50.543 329.677 42.852C337.368 35.161 349.835 35.161 357.526 42.852L469.146 154.472C476.837 162.163 476.837 174.63 469.146 182.321C461.456 190.012 448.987 190.012 441.297 182.321Z" fill="#FFDB77"/>
<path d="M469.146 154.472L413.337 98.6631L385.488 126.512L441.297 182.321C448.987 190.012 461.455 190.012 469.146 182.321C476.837 174.631 476.835 162.163 469.146 154.472Z" fill="#FF905E"/>
<path d="M154.468 469.144L42.854 357.53C35.163 349.839 35.163 337.372 42.854 329.681C50.545 321.99 63.012 321.991 70.703 329.681L182.316 441.294C190.007 448.985 190.007 461.452 182.316 469.143C174.628 476.834 162.159 476.834 154.468 469.144Z" fill="#28D2E4"/>
<path d="M182.319 441.295L126.512 385.488L98.663 413.337L154.47 469.144C162.16 476.834 174.628 476.834 182.319 469.144C190.008 461.453 190.008 448.984 182.319 441.295Z" fill="#28C3E4"/>
<path d="M327.328 296.29L215.708 184.67C208.017 176.979 208.017 164.512 215.708 156.821C223.399 149.13 235.866 149.13 243.557 156.821L355.177 268.441C362.868 276.131 362.868 288.599 355.177 296.29C347.487 303.98 335.018 303.98 327.328 296.29Z" fill="#28D2E4"/>
<path d="M355.178 268.441L299.369 212.632L271.52 240.48L327.329 296.289C335.019 303.979 347.487 303.979 355.178 296.289C362.867 288.599 362.867 276.131 355.178 268.441Z" fill="#28C3E4"/>
<path d="M366.417 193.56C403.572 197.954 467.987 198.761 506.231 160.519C513.921 152.828 513.921 140.361 506.231 132.67C498.541 124.979 486.073 124.979 478.382 132.67C451.402 159.65 396.799 158.929 359.118 152.746C353.812 121.116 350.856 62.09 379.33 33.617C387.02 25.926 387.02 13.459 379.33 5.76801C371.639 -1.92299 359.172 -1.92299 351.481 5.76801C313.237 44.012 314.046 108.428 318.44 145.582C192.886 130.737 130.418 190.177 145.584 318.438C108.429 314.045 44.012 313.237 5.77 351.479C-1.921 359.169 -1.921 371.637 5.77 379.328C13.461 387.018 25.928 387.018 33.619 379.328C60.542 352.405 115.002 353.052 152.767 359.234C158.944 396.982 159.602 451.453 132.673 478.382C124.982 486.073 124.982 498.54 132.673 506.231C140.364 513.922 152.831 513.921 160.522 506.231C198.766 467.987 197.957 403.572 193.563 366.417C319.115 381.262 381.582 321.822 366.417 193.56ZM325.621 186.378C343.378 294.9 302.497 329.428 227.511 329.151C211.08 329.091 196.211 327.23 186.378 325.621C184.768 315.784 182.908 300.919 182.848 284.488C182.577 211.312 215.186 168.302 325.621 186.378Z" fill="#F3F3F3"/>
<path d="M193.56 366.417C319.116 381.262 381.582 321.822 366.416 193.561C403.571 197.955 467.986 198.762 506.23 160.52C513.92 152.829 513.92 140.362 506.23 132.671C498.54 124.98 486.072 124.98 478.381 132.671C451.429 159.623 396.913 158.931 359.233 152.765L325.618 186.38C343.375 294.902 302.494 329.43 227.508 329.153C211.077 329.093 196.208 327.232 186.375 325.623L152.762 359.236C158.939 396.984 159.597 451.455 132.668 478.384C124.977 486.075 124.977 498.542 132.668 506.233C140.359 513.924 152.826 513.923 160.517 506.233C198.762 467.988 197.953 403.572 193.56 366.417Z" fill="#C4C4C4"/>
</g>
<defs>
<clipPath id="clip0">
<rect width="512" height="512" fill="white"/>
</clipPath>
</defs>
</svg>
