<?xml version="1.0" encoding="iso-8859-1"?>
<!DOCTYPE svg PUBLIC "-//W3C//DTD SVG 1.0//EN" "http://www.w3.org/TR/2001/REC-SVG-20010904/DTD/svg10.dtd">
<!-- Creator: CorelDRAW -->
<svg xmlns="http://www.w3.org/2000/svg" xmlns:odm="http://product.corel.com/CGS/11/cddns/" xml:space="preserve" width="1023px" height="372px" style="shape-rendering:geometricPrecision; text-rendering:geometricPrecision; image-rendering:optimizeQuality; fill-rule:evenodd"
     viewBox="0 0 1024 372">
 <defs>
  <style type="text/css">
   <![CDATA[
    .str2 {stroke:#000000;stroke-width:2}
    .str1 {stroke:#000000;stroke-width:2}
    .str0 {stroke:#000000;stroke-width:4}
    .str3 {stroke:#000000;stroke-width:7}
    .fil3 {fill:none}
    .fil4 {fill:#000000}
    .fil2 {fill:#C4FFFF}
    .fil1 {fill:#FF0000}
    .fil0 {fill:#FFE0E0}
    .fnt0 {font-weight:normal;font-size:25;font-family:Arial}
   ]]>
  </style>
 </defs>
 <g id="Layer 1">
  <circle class="fil0 str0" cx="76" cy="158" r="74"/>
  <circle class="fil0 str0" cx="297" cy="158" r="74"/>
  <circle class="fil0 str0" cx="943" cy="76" r="74"/>
  <circle class="fil0 str0" cx="943" cy="295" r="74"/>
  <path class="fil1 str1" d="M41 144c13,-13 31,-24 50,-34 12,-9 13,-14 23,-4 9,11 -1,17 -13,15 -7,-1 -13,5 -24,17 -8,6 -15,13 -23,20 -12,8 -22,-3 -13,-14z"/>
  <path class="fil2 str1" d="M41 194c18,4 39,5 61,4 14,2 18,6 22,-8 2,-15 -10,-14 -20,-7 -5,5 -13,3 -28,-2 -10,-2 -20,-4 -30,-6 -15,0 -17,14 -5,19z"/>
  <path class="fil1 str1" d="M908 61c14,-13 31,-24 51,-34 11,-9 13,-14 23,-4 9,12 -2,17 -14,16 -6,-2 -12,4 -23,16 -8,7 -15,13 -23,20 -13,8 -22,-4 -14,-14z"/>
  <path class="fil2 str1" d="M908 113c19,4 39,5 61,4 15,2 19,5 22,-9 2,-14 -10,-14 -20,-6 -4,5 -13,3 -28,-2 -10,-2 -20,-4 -30,-6 -15,0 -17,14 -5,19z"/>
  <path class="fil1 str1" d="M908 280c14,-13 31,-24 51,-35 11,-8 13,-14 23,-3 9,11 -2,17 -14,15 -6,-2 -12,4 -23,16 -8,7 -15,14 -23,20 -13,8 -22,-3 -14,-13z"/>
  <path class="fil2 str1" d="M908 331c19,4 39,5 61,4 15,2 19,6 22,-9 2,-14 -10,-13 -20,-6 -4,5 -13,3 -28,-2 -10,-2 -20,-4 -30,-6 -15,0 -17,14 -5,19z"/>
  <path class="fil1 str1" d="M295 127c-14,1 -27,8 -41,13 -12,3 -18,-6 -5,-14 16,-7 31,-8 46,-6 4,-1 9,-3 12,-8 8,-12 15,-14 21,-6 6,9 1,11 -8,11 -14,3 -9,17 3,11 7,-7 12,-8 13,3 1,10 -6,13 -20,8 -5,-1 -10,0 -14,2 -11,11 -23,20 -39,24 -15,3 -16,-8 -6,-14 14,-4 29,-8 41,-15 7,-3 5,-12 -3,-9z"/>
  <path class="fil2 str1" d="M305 187c-13,-3 -28,-2 -43,-2 -12,-2 -15,-12 1,-15 16,-1 31,3 45,10 4,1 9,1 14,-3 11,-8 18,-8 21,2 3,10 -3,11 -11,7 -14,-2 -15,13 -1,11 9,-3 14,-2 11,8 -3,10 -10,10 -21,1 -5,-4 -10,-4 -14,-3 -14,6 -29,11 -45,9 -15,-3 -13,-14 -1,-15 15,0 30,2 44,-1 8,0 8,-9 0,-9z"/>
  <path class="fil0 str0" d="M587 165c0,-27 5,-17 5,-55 0,-41 -34,-74 -74,-74 -41,0 -74,33 -74,74 0,34 6,23 6,55 0,32 -6,21 -6,55 0,41 33,74 74,74 40,0 74,-33 74,-74 0,-37 -5,-28 -5,-55z"/>
  <path class="fil0 str0" d="M780 165c-1,-27 24,-17 23,-55 0,-41 -33,-74 -74,-74 -41,0 -74,33 -74,74 0,34 28,32 28,55 0,24 -28,21 -28,55 0,41 33,74 74,74 41,0 74,-33 74,-74 1,-37 -24,-27 -23,-55z"/>
  <path class="fil3 str1" d="M484 119c-32,-33 -23,-62 22,-81"/>
  <path class="fil3 str1" d="M498 119c-23,-32 -17,-61 13,-82"/>
  <path class="fil3 str1" d="M518 108c-10,-21 -7,-46 0,-71m-2 0c-25,29 -19,64 8,96"/>
  <path class="fil3 str1" d="M528 115c9,-25 9,-52 -5,-78"/>
  <path class="fil3 str2" d="M531 122c20,-25 18,-54 -3,-84"/>
  <path class="fil3 str1" d="M551 112c13,-26 9,-52 -17,-73"/>
  <path class="fil3 str1" d="M549 177c39,-62 30,-105 -8,-136"/>
  <path class="fil3 str1" d="M458 197c-6,45 5,77 35,92"/>
  <path class="fil3 str1" d="M491 210c-13,27 -5,59 15,82m-3 0c-27,-30 -46,-58 -27,-82"/>
  <path class="fil3 str1" d="M507 207c-12,23 -9,52 2,86"/>
  <path class="fil3 str1" d="M516 293l-1 -82"/>
  <path class="fil3 str1" d="M520 293c7,-46 11,-93 4,-140"/>
  <path class="fil3 str1" d="M540 223c1,27 -10,49 -20,70"/>
  <path class="fil3 str1" d="M522 293c25,-18 36,-49 25,-96"/>
  <path class="fil3 str1" d="M534 292c30,-14 42,-38 33,-75"/>
  <path class="fil3 str1" d="M718 38c-26,10 -42,24 -43,46"/>
  <path class="fil3 str1" d="M691 99c-4,-23 7,-43 32,-62"/>
  <path class="fil3 str1" d="M735 108c-15,-16 -19,-39 -9,-71m0 0c-15,14 -20,32 -13,54"/>
  <path class="fil3 str1" d="M739 77c6,-14 2,-27 -6,-40"/>
  <path class="fil3 str1" d="M740 122c21,-26 21,-54 -3,-85"/>
  <path class="fil3 str1" d="M773 98c4,-22 -8,-42 -30,-60"/>
  <path class="fil3 str1" d="M778 131c14,-31 15,-61 -29,-91"/>
  <path class="fil3 str1" d="M676 245c5,19 18,34 36,47"/>
  <path class="fil3 str1" d="M687 215c-4,25 5,51 33,78m0 0c-11,-20 -11,-41 1,-65"/>
  <path class="fil3 str1" d="M727 293l-1 -30"/>
  <path class="fil3 str1" d="M735 217c6,25 7,51 -2,76"/>
  <path class="fil3 str1" d="M751 258c0,13 -6,25 -14,35"/>
  <path class="fil3 str1" d="M761 216c11,28 6,55 -19,76"/>
  <path class="fil3 str1" d="M747 291c27,-16 46,-39 47,-74"/>
  <path class="fil3 str1" d="M437 271l0 29 378 0 0 -29"/>
  <path class="fil3 str1" d="M637 300l0 16"/>
  <path class="fil3 str3" d="M165 165l40 0"/>
  <path class="fil4" d="M197 156l0 18 15 -9 -15 -9z"/>
  <path class="fil3 str3" d="M390 165l39 0"/>
  <path class="fil4" d="M421 156l0 18 15 -9 -15 -9z"/>
  <path class="fil3 str3" d="M607 165l39 0"/>
  <path class="fil4" d="M638 156l0 18 15 -9 -15 -9z"/>
  <path class="fil3 str3" d="M817 106l39 -9"/>
  <path class="fil4" d="M846 90l4 18 13 -12 -17 -6z"/>
  <path class="fil3 str3" d="M823 245l38 8"/>
  <path class="fil4" d="M855 243l-3 17 16 -5 -13 -12z"/>
  <text x="604" y="338" class="fil4 fnt0">Mitosis</text>
  <text x="893" y="182" class="fil4 fnt0">Two diploid</text>
  <text x="893" y="209" class="fil4 fnt0">cells</text>
  <text x="143" y="225" class="fil4 fnt0">DNA</text>
  <text x="143" y="253" class="fil4 fnt0">replication</text>
  <path class="fil2 str1" d="M537 182c-13,-3 -28,-1 -43,-1 -12,-2 -14,-13 1,-16 16,-1 31,4 45,11 4,0 9,0 14,-3 11,-9 18,-8 21,1 3,11 -3,11 -11,8 -14,-2 -15,12 -1,11 9,-3 14,-3 11,8 -3,9 -10,10 -21,0 -5,-3 -10,-3 -14,-3 -14,7 -29,11 -45,9 -15,-3 -13,-13 -1,-15 15,1 30,2 44,0 8,0 8,-10 0,-10z"/>
  <path class="fil1 str1" d="M512 138c-13,-3 -28,-2 -43,-1 -12,-2 -14,-13 1,-16 17,-1 31,4 45,11 4,0 9,0 14,-3 11,-9 18,-9 21,1 3,11 -3,11 -11,8 -14,-2 -15,12 -1,11 9,-4 14,-3 11,8 -3,9 -10,9 -21,0 -5,-3 -10,-3 -14,-3 -14,7 -29,11 -45,9 -15,-3 -13,-13 -1,-15 15,1 30,2 44,0 8,0 8,-10 0,-10z"/>
  <path class="fil2 str1" d="M730 134c-12,-15 -27,-29 -45,-42 -10,-10 -10,-16 -22,-7 -10,10 -1,17 11,17 7,0 12,6 21,20 6,8 13,16 19,23 11,10 22,0 16,-11z"/>
  <path class="fil1 str1" d="M737 148c8,-17 20,-33 34,-50 8,-12 8,-18 21,-12 12,8 4,17 -8,20 -6,0 -10,8 -16,23 -5,9 -9,18 -14,27 -9,12 -22,5 -17,-8z"/>
  <path class="fil2 str1" d="M712 184c13,13 31,24 50,34 12,9 13,14 23,4 9,-11 -1,-17 -13,-15 -7,1 -13,-4 -24,-17 -8,-6 -15,-13 -23,-20 -12,-8 -22,4 -13,14z"/>
  <path class="fil1 str1" d="M715 265c-12,-15 -22,-32 -31,-52 -8,-13 -13,-15 -2,-24 12,-8 17,3 14,15 -2,6 3,13 15,24 6,8 12,16 18,24 7,14 -5,22 -14,13z"/>
 </g>
</svg>
