<svg width="49" height="49" viewBox="0 0 49 49" fill="none" xmlns="http://www.w3.org/2000/svg">
<path d="M24.6373 31.6031C28.7377 31.6031 32.0617 28.2341 32.0617 24.0783C32.0617 19.9225 28.7377 16.5536 24.6373 16.5536C20.5369 16.5536 17.2128 19.9225 17.2128 24.0783C17.2128 28.2341 20.5369 31.6031 24.6373 31.6031Z" stroke="black" stroke-width="1.5" stroke-linecap="round" stroke-linejoin="round"/>
<path d="M34.4898 39.1282C31.1817 41.3534 27.2352 42.3951 23.2764 42.0882C19.3177 41.7812 15.5735 40.1432 12.6379 37.4339C9.70227 34.7247 7.74343 31.0994 7.07217 27.1334C6.40092 23.1674 7.05569 19.0877 8.9326 15.5418C10.8095 11.9959 13.801 9.18676 17.4325 7.5602C21.064 5.93365 25.1275 5.58281 28.9781 6.56335C32.8287 7.54389 36.246 9.79966 38.6877 12.9727C41.1293 16.1458 42.4555 20.0544 42.4559 24.0783C42.4559 28.2341 40.971 31.6031 37.2588 31.6031C33.5466 31.6031 32.0617 28.2341 32.0617 24.0783V16.5536" stroke="black" stroke-width="1.5" stroke-linecap="round" stroke-linejoin="round"/>
</svg>
