<svg width="48" height="49" viewBox="0 0 48 49" fill="none" xmlns="http://www.w3.org/2000/svg">
<path d="M23.9715 6.01986C14.1305 6.01986 6.15285 14.1053 6.15285 24.0793C6.15285 34.0532 14.1305 42.1387 23.9715 42.1387C33.8124 42.1387 41.7901 34.0532 41.7901 24.0793C41.7901 14.1053 33.8124 6.01986 23.9715 6.01986Z" stroke="black" stroke-width="1.5" stroke-linecap="round" stroke-linejoin="round"/>
<path d="M18.0317 19.5642C18.9669 18.301 20.2704 17.3681 21.7577 16.8974C23.245 16.4268 24.8407 16.4423 26.3189 16.9418C27.797 17.4414 29.0826 18.3996 29.9936 19.6807C30.9046 20.9618 31.3948 22.501 31.3948 24.0802C31.3948 25.6594 30.9046 27.1985 29.9936 28.4797C29.0827 29.7608 27.7971 30.719 26.319 31.2186C24.8408 31.7181 23.2451 31.7337 21.7578 31.2631C20.2705 30.7924 18.9669 29.8595 18.0318 28.5963" stroke="black" stroke-width="1.5" stroke-linecap="round" stroke-linejoin="round"/>
</svg>
