<?xml version="1.0" encoding="iso-8859-1"?>
<!-- Generator: Adobe Illustrator 19.0.0, SVG Export Plug-In . SVG Version: 6.00 Build 0)  -->
<svg version="1.1" id="Layer_1" xmlns="http://www.w3.org/2000/svg" xmlns:xlink="http://www.w3.org/1999/xlink" x="0px" y="0px"
	 viewBox="0 0 512 512" style="enable-background:new 0 0 512 512;" xml:space="preserve">
<path style="fill:#FFDB77;" d="M268.441,355.178l-111.62-111.62c-7.691-7.691-7.691-20.158,0-27.849s20.158-7.691,27.849,0
	l111.62,111.62c7.69,7.69,7.69,20.158,0,27.849C288.599,362.868,276.13,362.868,268.441,355.178z"/>
<path style="fill:#FF905E;" d="M296.29,327.328l-55.809-55.809l-27.849,27.849l55.809,55.809c7.691,7.69,20.158,7.69,27.849,0
	C303.98,347.487,303.98,335.018,296.29,327.328z"/>
<path style="fill:#FFDB77;" d="M441.297,182.321l-111.62-111.62c-7.69-7.691-7.69-20.158,0-27.849
	c7.691-7.691,20.158-7.691,27.849,0l111.62,111.62c7.691,7.691,7.691,20.158,0,27.849
	C461.456,190.012,448.987,190.012,441.297,182.321z"/>
<path style="fill:#FF905E;" d="M469.146,154.472l-55.809-55.809l-27.849,27.849l55.809,55.809c7.69,7.691,20.158,7.691,27.849,0
	C476.837,174.631,476.835,162.163,469.146,154.472z"/>
<path style="fill:#28D2E4;" d="M154.468,469.144L42.854,357.53c-7.691-7.691-7.691-20.158,0-27.849s20.158-7.69,27.849,0
	l111.613,111.613c7.691,7.691,7.691,20.158,0,27.849C174.628,476.834,162.159,476.834,154.468,469.144z"/>
<path style="fill:#28C3E4;" d="M182.319,441.295l-55.807-55.807l-27.849,27.849l55.807,55.807c7.69,7.69,20.158,7.69,27.849,0
	C190.008,461.453,190.008,448.984,182.319,441.295z"/>
<path style="fill:#28D2E4;" d="M327.328,296.29l-111.62-111.62c-7.691-7.691-7.691-20.158,0-27.849s20.158-7.691,27.849,0
	l111.62,111.62c7.691,7.69,7.691,20.158,0,27.849C347.487,303.98,335.018,303.98,327.328,296.29z"/>
<path style="fill:#28C3E4;" d="M355.178,268.441l-55.809-55.809L271.52,240.48l55.809,55.809c7.69,7.69,20.158,7.69,27.849,0
	C362.867,288.599,362.867,276.131,355.178,268.441z"/>
<path style="fill:#808285;" d="M366.417,193.56c37.155,4.394,101.57,5.201,139.814-33.041c7.69-7.691,7.69-20.158,0-27.849
	c-7.69-7.691-20.158-7.691-27.849,0c-26.98,26.98-81.583,26.259-119.264,20.076c-5.306-31.63-8.262-90.656,20.212-119.129
	c7.69-7.691,7.69-20.158,0-27.849c-7.691-7.691-20.158-7.691-27.849,0c-38.244,38.244-37.435,102.66-33.041,139.814
	c-125.554-14.845-188.022,44.595-172.856,172.856c-37.155-4.393-101.572-5.201-139.814,33.041c-7.691,7.69-7.691,20.158,0,27.849
	c7.691,7.69,20.158,7.69,27.849,0c26.923-26.923,81.383-26.276,119.148-20.094c6.177,37.748,6.835,92.219-20.094,119.148
	c-7.691,7.691-7.691,20.158,0,27.849s20.158,7.69,27.849,0c38.244-38.244,37.435-102.659,33.041-139.814
	C319.115,381.262,381.582,321.822,366.417,193.56z M325.621,186.378c17.757,108.522-23.124,143.05-98.11,142.773
	c-16.431-0.06-31.3-1.921-41.133-3.53c-1.61-9.837-3.47-24.702-3.53-41.133C182.577,211.312,215.186,168.302,325.621,186.378z"/>
<path style="fill:#6D6E71;" d="M193.56,366.417c125.556,14.845,188.022-44.595,172.856-172.856
	c37.155,4.394,101.57,5.201,139.814-33.041c7.69-7.691,7.69-20.158,0-27.849c-7.69-7.691-20.158-7.691-27.849,0
	c-26.952,26.952-81.468,26.26-119.148,20.094l-33.615,33.615c17.757,108.522-23.124,143.05-98.11,142.773
	c-16.431-0.06-31.3-1.921-41.133-3.53l-33.613,33.613c6.177,37.748,6.835,92.219-20.094,119.148c-7.691,7.691-7.691,20.158,0,27.849
	s20.158,7.69,27.849,0C198.762,467.988,197.953,403.572,193.56,366.417z"/>
<g>
</g>
<g>
</g>
<g>
</g>
<g>
</g>
<g>
</g>
<g>
</g>
<g>
</g>
<g>
</g>
<g>
</g>
<g>
</g>
<g>
</g>
<g>
</g>
<g>
</g>
<g>
</g>
<g>
</g>
</svg>
