<svg width="256" height="84" viewBox="0 0 256 84" fill="none" xmlns="http://www.w3.org/2000/svg">
<path d="M88.628 11.428H94.748C97.196 11.428 99.032 11.92 100.256 12.904C101.504 13.888 102.128 15.616 102.128 18.088C102.128 19.84 101.78 21.184 101.084 22.12C100.388 23.056 99.368 23.704 98.024 24.064C96.704 24.4 94.952 24.568 92.768 24.568H90.86V34H88.628V11.428ZM92.336 22.732C94.352 22.732 95.852 22.66 96.836 22.516C97.82 22.348 98.564 21.94 99.068 21.292C99.596 20.62 99.86 19.564 99.86 18.124C99.86 16.252 99.464 14.968 98.672 14.272C97.904 13.552 96.644 13.192 94.892 13.192H90.86V22.732H92.336ZM111.867 34.18C109.587 34.18 107.895 33.412 106.791 31.876C105.687 30.316 105.135 28.12 105.135 25.288C105.135 22.336 105.675 20.128 106.755 18.664C107.835 17.176 109.539 16.432 111.867 16.432C114.195 16.432 115.899 17.176 116.979 18.664C118.083 20.128 118.635 22.336 118.635 25.288C118.635 28.12 118.083 30.316 116.979 31.876C115.875 33.412 114.171 34.18 111.867 34.18ZM111.867 32.308C113.523 32.308 114.687 31.708 115.359 30.508C116.031 29.308 116.367 27.568 116.367 25.288C116.367 23.056 116.019 21.328 115.323 20.104C114.651 18.88 113.499 18.268 111.867 18.268C110.235 18.268 109.071 18.88 108.375 20.104C107.703 21.328 107.367 23.056 107.367 25.288C107.367 27.568 107.703 29.308 108.375 30.508C109.047 31.708 110.211 32.308 111.867 32.308ZM122.971 16.684H124.843L125.023 17.908C125.887 17.356 126.715 16.972 127.507 16.756C128.323 16.54 129.163 16.432 130.027 16.432C131.851 16.432 133.291 17.164 134.347 18.628C135.403 20.068 135.931 22.3 135.931 25.324C135.931 28.468 135.391 30.736 134.311 32.128C133.255 33.496 131.647 34.18 129.487 34.18C127.903 34.18 126.487 33.868 125.239 33.244V40.84H122.971V16.684ZM129.163 32.308C130.747 32.308 131.887 31.78 132.583 30.724C133.303 29.644 133.663 27.856 133.663 25.36C133.663 22.912 133.351 21.124 132.727 19.996C132.103 18.844 131.107 18.268 129.739 18.268C128.467 18.268 126.967 18.772 125.239 19.78V31.588C125.887 31.9 126.463 32.104 126.967 32.2C127.471 32.272 128.035 32.308 128.659 32.308H129.163ZM145.166 34.18C143.39 34.18 142.082 33.712 141.242 32.776C140.426 31.84 140.018 30.364 140.018 28.348V16.684H142.25V28.456C142.25 29.848 142.478 30.844 142.934 31.444C143.39 32.02 144.206 32.308 145.382 32.308C146.318 32.308 147.146 32.248 147.866 32.128C148.61 31.984 149.438 31.648 150.35 31.12V16.684H152.618V34H150.746L150.602 32.884C149.498 33.412 148.55 33.76 147.758 33.928C146.966 34.096 146.102 34.18 145.166 34.18ZM156.306 34V32.416H160.23V11.716H156.342V10.132H162.498V32.416H166.206V34H156.306ZM174.558 34.18C172.878 34.18 171.522 33.76 170.49 32.92C169.482 32.08 168.978 30.868 168.978 29.284C168.978 27.748 169.65 26.488 170.994 25.504C172.338 24.52 174.534 24.028 177.582 24.028H179.094V23.488C179.094 21.568 178.758 20.224 178.086 19.456C177.438 18.664 176.514 18.268 175.314 18.268C174.666 18.268 174.018 18.34 173.37 18.484C172.722 18.604 171.738 18.832 170.418 19.168L169.986 17.44C172.002 16.768 173.802 16.432 175.386 16.432C177.21 16.432 178.65 16.972 179.706 18.052C180.786 19.108 181.326 20.812 181.326 23.164V34H179.706L179.346 32.848C178.914 33.184 178.23 33.496 177.294 33.784C176.358 34.048 175.446 34.18 174.558 34.18ZM174.882 32.38C175.626 32.38 176.394 32.272 177.186 32.056C177.978 31.816 178.614 31.54 179.094 31.228V25.684H178.122C176.13 25.684 174.462 25.912 173.118 26.368C171.774 26.824 171.102 27.736 171.102 29.104C171.102 30.184 171.426 31 172.074 31.552C172.722 32.104 173.658 32.38 174.882 32.38ZM186.361 16.684H188.521L188.593 18.196C189.265 17.74 190.129 17.344 191.185 17.008C192.265 16.672 193.261 16.48 194.173 16.432V18.304C193.141 18.304 192.097 18.46 191.041 18.772C190.009 19.084 189.205 19.444 188.629 19.852V34H186.361V16.684ZM96.26 80.18C94.22 80.18 92.588 79.772 91.364 78.956C90.14 78.116 89.264 76.856 88.736 75.176C88.208 73.496 87.944 71.3 87.944 68.588C87.944 64.532 88.652 61.616 90.068 59.84C91.508 58.04 93.656 57.14 96.512 57.14C98.6 57.14 100.544 57.572 102.344 58.436V62.72H100.4V59.66C99.968 59.468 99.404 59.312 98.708 59.192C98.036 59.072 97.376 59.012 96.728 59.012C95.288 59.012 94.088 59.264 93.128 59.768C92.192 60.272 91.46 61.22 90.932 62.612C90.404 63.98 90.14 65.912 90.14 68.408C90.14 70.808 90.332 72.728 90.716 74.168C91.1 75.584 91.736 76.628 92.624 77.3C93.536 77.972 94.784 78.308 96.368 78.308C97.184 78.308 97.988 78.236 98.78 78.092C99.596 77.948 100.304 77.732 100.904 77.444V70.028H96.764V68.3H102.956V78.38C102.044 78.884 101.072 79.316 100.04 79.676C99.008 80.012 97.748 80.18 96.26 80.18ZM114.59 80.18C109.622 80.18 107.138 77.216 107.138 71.288C107.138 68.336 107.774 66.128 109.046 64.664C110.318 63.176 112.022 62.432 114.158 62.432C116.078 62.432 117.59 63.068 118.694 64.34C119.822 65.588 120.386 67.268 120.386 69.38L120.314 71L120.242 71.756H109.37C109.394 74.228 109.874 75.944 110.81 76.904C111.746 77.84 112.958 78.308 114.446 78.308C115.358 78.308 116.21 78.2 117.002 77.984C117.794 77.768 118.586 77.408 119.378 76.904L120.062 78.668C119.246 79.172 118.346 79.556 117.362 79.82C116.402 80.06 115.478 80.18 114.59 80.18ZM118.298 70.172V69.308C118.298 67.772 117.926 66.548 117.182 65.636C116.438 64.724 115.43 64.268 114.158 64.268C112.694 64.268 111.566 64.784 110.774 65.816C109.982 66.848 109.514 68.3 109.37 70.172H118.298ZM124.624 62.684H126.496L126.64 63.8C127.792 63.272 128.752 62.912 129.52 62.72C130.288 62.528 131.116 62.432 132.004 62.432C133.804 62.432 135.124 62.912 135.964 63.872C136.804 64.832 137.224 66.32 137.224 68.336V80H134.992V68.264C134.992 66.848 134.764 65.828 134.308 65.204C133.852 64.58 133.048 64.268 131.896 64.268C131.056 64.268 130.24 64.352 129.448 64.52C128.68 64.688 127.828 65.036 126.892 65.564V80H124.624V62.684ZM148.868 80.18C143.9 80.18 141.416 77.216 141.416 71.288C141.416 68.336 142.052 66.128 143.324 64.664C144.596 63.176 146.3 62.432 148.436 62.432C150.356 62.432 151.868 63.068 152.972 64.34C154.1 65.588 154.664 67.268 154.664 69.38L154.592 71L154.52 71.756H143.648C143.672 74.228 144.152 75.944 145.088 76.904C146.024 77.84 147.236 78.308 148.724 78.308C149.636 78.308 150.488 78.2 151.28 77.984C152.072 77.768 152.864 77.408 153.656 76.904L154.34 78.668C153.524 79.172 152.624 79.556 151.64 79.82C150.68 80.06 149.756 80.18 148.868 80.18ZM152.576 70.172V69.308C152.576 67.772 152.204 66.548 151.46 65.636C150.716 64.724 149.708 64.268 148.436 64.268C146.972 64.268 145.844 64.784 145.052 65.816C144.26 66.848 143.792 68.3 143.648 70.172H152.576ZM164.733 80.18C163.509 80.156 162.561 79.892 161.889 79.388C161.217 78.884 160.749 78.14 160.485 77.156C160.245 76.172 160.125 74.852 160.125 73.196V64.268H157.425V62.684H160.197L160.629 57.716H162.393V62.684H167.793V64.268H162.393V73.232C162.393 74.72 162.501 75.824 162.717 76.544C162.957 77.264 163.269 77.744 163.653 77.984C164.061 78.2 164.625 78.308 165.345 78.308C166.641 78.308 167.517 78.272 167.973 78.2L168.081 80C167.145 80.12 166.029 80.18 164.733 80.18ZM176.084 59.336C175.628 59.336 175.244 59.204 174.932 58.94C174.62 58.652 174.464 58.268 174.464 57.788C174.464 57.308 174.62 56.924 174.932 56.636C175.244 56.324 175.628 56.168 176.084 56.168C176.54 56.168 176.912 56.312 177.2 56.6C177.512 56.864 177.668 57.248 177.668 57.752C177.668 58.256 177.512 58.652 177.2 58.94C176.912 59.204 176.54 59.336 176.084 59.336ZM171.584 80V78.416H174.932V64.268H171.584V62.684H177.2V78.416H180.584V80H171.584ZM190.377 80.18C189.033 80.18 187.833 79.844 186.777 79.172C185.721 78.5 184.881 77.504 184.257 76.184C183.657 74.84 183.357 73.208 183.357 71.288C183.357 65.384 185.625 62.432 190.161 62.432C191.793 62.432 193.341 62.78 194.805 63.476V68.012L193.005 68.192V64.664C192.285 64.376 191.325 64.232 190.125 64.232C188.469 64.232 187.293 64.844 186.597 66.068C185.925 67.292 185.589 69.044 185.589 71.324C185.589 73.556 186.033 75.284 186.921 76.508C187.833 77.732 189.057 78.344 190.593 78.344C191.985 78.344 193.329 77.9 194.625 77.012L195.489 78.596C194.697 79.172 193.881 79.58 193.041 79.82C192.225 80.06 191.337 80.18 190.377 80.18ZM204.341 80.18C203.405 80.18 202.421 80.06 201.389 79.82C200.381 79.556 199.433 79.208 198.545 78.776L199.265 77.048C199.865 77.384 200.621 77.684 201.533 77.948C202.469 78.188 203.369 78.308 204.233 78.308C205.313 78.308 206.177 78.08 206.825 77.624C207.497 77.144 207.833 76.388 207.833 75.356C207.833 74.54 207.641 73.928 207.257 73.52C206.897 73.112 206.321 72.776 205.529 72.512L202.901 71.72C201.941 71.408 201.173 71.084 200.597 70.748C200.021 70.412 199.577 69.956 199.265 69.38C198.953 68.78 198.797 68.012 198.797 67.076C198.797 65.516 199.337 64.352 200.417 63.584C201.497 62.816 202.853 62.432 204.485 62.432C206.189 62.432 207.749 62.768 209.165 63.44L208.517 65.132C207.965 64.868 207.341 64.664 206.645 64.52C205.973 64.352 205.313 64.268 204.665 64.268C203.585 64.268 202.697 64.508 202.001 64.988C201.305 65.444 200.957 66.176 200.957 67.184C200.957 67.712 201.053 68.12 201.245 68.408C201.437 68.696 201.701 68.924 202.037 69.092C202.373 69.26 202.877 69.452 203.549 69.668L206.141 70.496C207.557 70.952 208.553 71.516 209.129 72.188C209.729 72.86 210.029 73.88 210.029 75.248C210.029 76.952 209.489 78.2 208.409 78.992C207.353 79.784 205.997 80.18 204.341 80.18Z" fill="black"/>
<path d="M75.6116 28.5255C75.0938 28.0077 74.3169 28.0077 73.7989 28.5255C73.44 28.8845 73.0832 29.2171 72.7276 29.5257L54.405 11.2031C54.6795 10.8936 54.9716 10.5828 55.2846 10.27C55.8024 9.75213 55.8024 8.9753 55.2846 8.45731C54.7667 7.93947 53.9899 7.93947 53.4719 8.45731C50.1258 11.8666 48.7505 15.1223 48.4894 18.8092C48.416 19.0252 48.404 19.2534 48.4541 19.4734C48.341 22.6962 49.0173 26.2651 49.936 30.555C46.3371 29.8998 42.9501 29.6986 39.8749 29.9265C39.5228 29.7584 39.1448 29.7915 38.803 30.0254C34.6461 30.4805 31.1106 31.753 28.4622 33.777C28.2838 33.8404 28.1142 33.9446 27.9661 34.0927C27.8876 34.1712 27.8225 34.2561 27.7678 34.3447C27.5239 34.5566 27.2857 34.7731 27.0597 34.9991C24.4485 37.6103 23.2942 40.8122 23.1259 44.7975C23.0286 45.0574 23.0211 45.3372 23.1051 45.6C23.0755 48.6679 23.5827 52.1835 24.4345 56.2329C13.4381 54.0793 6.15594 55.7733 0.388423 61.5408C-0.129413 62.0586 -0.129413 62.8355 0.388423 63.3535C0.647417 63.6125 0.90626 63.7419 1.29468 63.7419C1.68309 63.7419 1.94208 63.6125 2.07151 63.4829C2.74122 62.8132 3.42838 62.2087 4.13785 61.6651L22.2858 79.8129C21.7721 80.4759 21.2075 81.1169 20.586 81.7384C20.0682 82.2563 20.0682 83.0331 20.586 83.5511C20.845 83.8101 21.1039 83.9395 21.4923 83.9395C21.7513 83.9395 22.1397 83.8101 22.5281 83.4216C28.2389 77.7109 29.9582 70.5175 27.901 59.7016C37.5299 61.6968 44.121 61.6994 48.8109 57.0094C53.5816 52.361 55.1142 43.8978 53.1944 33.8054C62.9593 35.903 69.1115 36.8383 75.6116 30.3381C76.1294 29.8203 76.1294 29.0435 75.6116 28.5255ZM70.6415 31.0649C68.9139 32.1189 67.1526 32.6559 65.2125 32.8231C65.1544 32.7228 65.0827 32.6271 64.9948 32.5391L51.0002 18.6705C51.1865 16.7392 51.7494 14.9892 52.8403 13.2636L70.6415 31.0649ZM61.3288 32.7406C58.8364 32.4758 56.0037 31.8636 52.6254 31.1138C51.8755 27.6902 51.2731 24.8465 51.0364 22.3555L61.3288 32.7406ZM50.5102 33.2299C51.1011 36.097 51.4012 38.8294 51.4197 41.3626L42.4488 32.3917C44.9699 32.3869 47.6806 32.6611 50.5102 33.2299ZM48.7052 53.0195L30.8936 35.2079C33.102 33.8032 35.9545 32.9085 39.2495 32.5588L50.8823 44.1915C51.0131 44.3223 51.1442 44.4199 51.2916 44.4847C50.9804 47.8537 50.1051 50.7591 48.7052 53.0195ZM25.8532 48.5524L35.4795 58.1789C33.0575 57.9678 30.3368 57.4911 27.2898 56.8396C26.5864 53.7566 26.0809 51.0032 25.8532 48.5524ZM25.0507 59.087C25.6592 62.063 25.9918 64.7232 26.044 67.1282L16.9225 58.0067C19.3464 58.0879 22.0342 58.4535 25.0507 59.087ZM6.32663 60.2285C8.42498 59.0663 10.7415 58.3687 13.3982 58.1076L25.9052 70.6146C25.6148 73.2584 24.8938 75.5619 23.7323 77.6343L6.32663 60.2285ZM39.1958 58.2699L25.7416 44.8157C25.8956 41.4819 26.8354 38.8487 28.8723 36.8118L47.1245 55.064C47.0822 55.1078 47.0414 55.1538 46.9984 55.1967C45.0026 57.1924 42.4342 58.1044 39.1958 58.2699Z" fill="black"/>
</svg>
